<?xml version="1.0" encoding="UTF-8"?>
<svg id="_レイヤー_2" data-name="レイヤー 2" xmlns="http://www.w3.org/2000/svg" viewBox="0 0 103.104 13.213">
  <g id="_レイヤー_1-2" data-name="レイヤー 1">
    <g>
      <path d="M.48,8.449c.191,0,.384.036.551.133.12.071.216.18.276.287.288.492.348.636.528,1.115.048.133.12.276.204.385.144.239.468.684.468.947,0,.036-.072.384-.504.384-.348,0-.612-.132-.852-.384-.12-.12-.24-.252-.312-.408-.12-.264-.204-.563-.24-.852-.024-.191-.084-.756-.144-.899-.048-.107-.18-.407-.18-.479,0-.145.048-.229.204-.229ZM.408,3.916c0-.168.132-.359.372-.684.108-.144.3-.443.3-.623,0-.084-.108-.12-.312-.192-.228-.084-.408-.324-.408-.563,0-.384.636-.695,1.043-.695.264,0,.503.083.731.203.132-.191.252-.396.444-.527.3-.192.66-.348,1.007-.348.516,0,.996.407,1.283.804.216.287.36.611.42.971,0,.048.024.097.036.145.168-.061.335-.108.492-.192l1.055-.527.012-.18c-.228-.108-.516-.24-.516-.528,0-.504.744-.684,1.139-.684.36,0,.815.084,1.08.348.12.108.228.229.348.336.228-.036.468-.071.708-.071.408,0,.924.096,1.295.264.396.18.804.575.804,1.031,0,.492-.432.815-.888.815-.216,0-.432-.036-.828-.107-.06-.013-.072-.013-.096-.013-.252,0-.504,0-.756.048-.012.12-.024.24-.036.36.084-.012.156-.024.251-.036.096-.012.192-.024.264-.024.744,0,1.895.133,1.895,1.116,0,.443-.252.671-.684.671-.288,0-.576-.107-.852-.168-.12-.023-.24-.035-.36-.035-.288,0-1.067.048-1.319.144l-.947.359c-.228.097-.552.24-.792.252-.12,0-.216,0-.24.132-.048.132-.108.265-.156.384-.012.036-.012.072-.024.108.251-.024.492-.144.719-.228l.804-.324c.036-.024.096-.048.132-.072.204-.12.648-.348.948-.42.288-.071.563-.096.828-.096.624,0,1.127.192,1.583.624.096.084.3.407.348.539.18.504.24.756.24.996,0,.288-.096.659-.264.899-.144.191-.312.3-.504.432l.024.096c.084.216.192.42.3.624.156.288.335.624.335.959,0,.276-.108.552-.288.756-.396.432-.983.552-1.559.552-.42,0-.84-.036-1.2-.264-.204-.12-.384-.312-.479-.528-.156-.407-.192-1.187-.144-1.618l.108-.984c.012-.18.06-.359.084-.551-.084-.072-.156-.145-.216-.24-.204.06-.396.132-.612.144-.168,0-.335.048-.516.061l.072.036c.228.083.432.251.527.479.108.264.204.839.156,1.127l-.192,1.14c-.036.18-.24.672-.372.779-.24.204-.468.348-.779.348-.216,0-.42-.06-.612-.168-.264-.155-.384-.348-.528-.611-.024-.036-.048-.072-.072-.107-.012-.024-.012-.049-.012-.072.012-.168.228-.228.36-.3s.504-.576.576-.72c-.587-.168-.887-.659-.959-1.247-.612.048-.744-.456-.923-.924-.084.072-.156.144-.228.216-.048.048-.096.084-.144.132.036.048.084.12.132.168l.527.552c.204.228.564.611.72.863.084.145.144.3.144.468,0,.229-.18.444-.42.444-.479,0-.768-.42-1.007-.768-.216-.3-.3-.492-.444-.84-.072-.12-.156-.252-.216-.384-.12.096-.228.156-.36.228.072.12.156.24.252.36l.576.936c.18.287.444.6.444.947,0,.336-.3.492-.612.492-.684,0-1.223-1.056-1.391-1.619-.096-.312-.216-.708-.432-.96-.324-.084-.648-.348-.864-.588-.3-.348-.48-.827-.48-1.295,0-.684.432-1.235.864-1.728-.36-.216-.744-.575-.744-1.031ZM1.787,7.034c.048,0,.096-.048.12-.084.144-.168.696-.743.912-.959.18-.18.42-.384.612-.516-.072-.156-.156-.312-.24-.468-.12.084-.24.155-.348.252-.156.132-.288.239-.492.384-.18.191-.468.443-.66.671-.096.133-.144.3-.168.42,0,.013.012.048.024.084.12.132.204.216.24.216ZM3.538,2.465c.3-.336.312-.432.312-.623,0-.145-.3-.372-.36-.372-.18,0-.216.155-.348.647-.06.24-.204.731-.312,1.115.168-.18.468-.504.708-.768ZM5.229,5.955c.084-.264.204-.504.312-.768-.204-.156-.444-.348-.444-.636s.3-.336.528-.372c.312-.035.936-.252,1.211-.407.012-.072.012-.156.012-.24-.24.024-.503.096-.755.096-.36,0-.708-.18-1.007-.384-.288.456-.708.804-1.116,1.151.444.324,1.104.948,1.235,1.487l.024.072ZM6.188,8.594c.048-.132.144-.42.144-.552,0-.048-.024-.108-.096-.216-.012-.024-.024-.048-.024-.072,0-.12.072-.216.144-.312l-.408-.18c-.072.144-.084.3-.084.455,0,.288.072.648.3.852l.024.024ZM9.547,7.311c.096,0,.204,0,.288-.036.144-.084.252-.288.252-.443,0-.192-.096-.408-.204-.576-.18.048-.551.24-.719.348.252.264.3.372.384.708ZM9.607,8.414c-.036.275-.06.539-.06.815,0,.107,0,.336.156.336.084,0,.516-.145.647-.265.108-.107.132-.3.132-.443,0-.06-.012-.132-.024-.204-.3-.036-.564-.132-.852-.239Z" fill="#fff"/>
      <path d="M19.652,6.003c0,.899-.756,1.655-1.655,1.655s-1.655-.756-1.655-1.655.755-1.655,1.655-1.655,1.655.756,1.655,1.655Z" fill="#fff"/>
      <path d="M28.976,2.909c.204-.192.396-.384.528-.624-.084-.228-.204-.443-.204-.684,0-.516.3-.815.804-.815.588,0,1.115.323,1.403.827.216.348.36.792.36,1.199,0,.384-.108.84-.336,1.151-.228.3-.564.552-.864.792-.372.288-.768.563-1.031.947.552.552.852,1.308.852,2.087s-.336,1.511-1.223,1.511c-.456,0-.912-.216-1.164-.587-.168-.252-.252-.54-.324-.84-.648.852-1.188,1.787-1.919,2.578-.588.636-1.188.852-2.063.852-.372,0-.744-.06-1.055-.287-.336-.252-.504-.624-.504-1.032,0-.335.108-.659.216-.959.096-.252.168-.504.18-.768.048-.659.096-1.319.24-1.967.204-.912.66-1.596,1.355-2.123.564-.42,1.271-.672,1.979-.672.504,0,.923.168,1.679.528.372-.372.708-.768,1.091-1.115ZM25.318,5.319c-.3,0-.552.396-.66.636-.204.504-.264,1.092-.264,1.619,0,.24.024.479.036.72.3-.396.576-.828.875-1.235.324-.42.671-.84.996-1.26-.228-.18-.684-.479-.983-.479Z" fill="#fff"/>
      <path d="M39.309,6.471c.084.527.048,2.183.048,2.807,0,.432,0,.911-.216,1.295-.228.396-.624.624-1.067.624-1.307,0-1.451-1.319-1.451-2.314,0-.924.036-1.835.048-2.747.012-.743.072-1.499.108-2.242.036-.492.06-.983.06-1.476,0-.12-.036-.156-.132-.204-.288-.144-.48-.275-.48-.539,0-.504.468-.78.924-.78.911,0,1.739.864,1.967,1.716.06.239.096.575.096.875,0,.384.024.54.132.552.324.024,1.031.168,1.415.336,1.031.456,2.674,1.247,2.674,2.566,0,.672-.408,1.26-1.127,1.26-.492,0-.888-.265-1.463-.899-.372-.42-.792-.78-1.271-1.068-.108-.071-.168-.096-.216-.096-.06,0-.072.072-.072.12,0,.072.012.144.024.216ZM41.012.99c.228,0,.444.096.563.275.12.192.204.384.312.576.072.132.144.239.24.371.06.084.096.216.096.312,0,.228-.24.516-.468.516-.288,0-.516-.265-.636-.504-.084-.168-.516-1.115-.516-1.224,0-.228.204-.323.408-.323ZM42.679,2.849c-.108-.12-.144-.275-.168-.516-.036-.312-.192-.504-.36-.756-.048-.071-.12-.18-.12-.275,0-.144.167-.216.288-.216.36,0,.744.18.983.468s.336.539.336.947c0,.359-.18.563-.516.563-.18,0-.324-.084-.444-.216Z" fill="#fff"/>
      <path d="M54.187,9.229c-1.031.863-2.351,1.427-3.706,1.427-.996,0-2.123-.264-2.866-.972-.648-.623-.78-1.522-.78-2.386,0-.9.204-2.543.396-3.767.012-.107.06-.348.06-.407,0-.156-.084-.265-.167-.384-.156-.204-.3-.444-.3-.72,0-.432.36-.78.792-.78.647,0,1.235.48,1.655.936.42.456.732,1.02.732,1.644,0,.312-.12.852-.216,1.259-.204.816-.503,1.919-.503,2.735,0,.335.096.647.492.647.408,0,.828-.204,1.188-.384.768-.384,1.415-.96,1.943-1.619.468-.588.827-1.235,1.139-1.919.216-.468.432-.972.6-1.512.024-.071.048-.144.144-.144.144,0,.216.275.252.636.036.396.168.743.348,1.104.288.563.456,1.115.456,1.763,0,1.14-.816,2.146-1.655,2.843Z" fill="#fff"/>
      <path d="M58.211,6.387c-.204-.18-.42-.479-.42-.768,0-.204.096-.432.3-.432.06,0,.132.012.264.036.06.012.216.036.264.036.096,0,.504-.036.768-.061.432-.036.852-.096,1.283-.168,1.427-.228,3.586-.359,4.75-.359.971,0,2.807.036,2.807,1.403,0,.672-.684.899-1.248.899-.384,0-.755-.048-1.139-.061-.492-.012-.984-.023-1.476-.023-.768,0-1.595.023-2.362.06-.708.036-1.332.072-1.775.072-.647,0-1.475-.156-2.015-.636Z" fill="#fff"/>
      <path d="M76.162,1.674c1.416,0,2.663.755,2.663,2.303,0,.791-.348,1.247-.852,1.811-.36.408-.708.827-1.043,1.26.06-.013.12-.013.18-.013.624.013.899.432.899,1.235.132-.096.384-.552.479-.815.072-.191.12-.312.228-.312.396,0,.479.972.479,1.259,0,.815-.288,1.523-.971,2.039-.3.229-.66.336-1.02.336-.42,0-.839-.132-1.115-.456-.264-.287-.288-.659-.288-1.043,0-.228-.024-.324-.132-.324-.144,0-.312.324-.54.744-.468.852-.696,1.079-1.188,1.079-.684,0-1.331-.491-1.331-1.211,0-.276.072-.528.204-.768.264-.456.612-.948.948-1.392.779-1.067,1.583-2.135,2.422-3.178.204-.252.312-.408.312-.564,0-.155-.108-.42-.3-.42-.288,0-.456.324-.576.54-.396.72-.875,1.176-1.739,1.176-.66,0-1.427-.372-1.427-1.128,0-.479.36-.972.875-.972.036,0,.084,0,.132.013.827-.708,1.595-1.199,2.698-1.199Z" fill="#fff"/>
      <path d="M85.053,1.722c.348,0,.708.275.935.516.264.288.492.672.492,1.056,0,.203-.072.384-.156.551.384.996.66,1.812.66,2.938,0,1.032-.24,2.207-.983,2.986-.647.672-1.559,1.008-2.495,1.008-1.02,0-1.955-.647-2.531-1.487-.503-.768-.636-1.727-.636-2.626,0-1.667.516-3.143,1.763-4.282.42-.384.923-.707,1.499-.707.348,0,.684.132.996.264.132-.108.276-.216.456-.216ZM83.83,3.928c-.3,0-.563.288-.72.528-.384.611-.527,1.355-.527,2.075,0,.815.324,1.786.995,1.786.336,0,.612-.287.792-.539.348-.504.432-1.164.432-1.764,0-.611-.108-2.087-.972-2.087Z" fill="#fff"/>
      <path d="M92.829,1.722c.348,0,.708.275.936.516.264.288.492.672.492,1.056,0,.203-.072.384-.156.551.384.996.66,1.812.66,2.938,0,1.032-.24,2.207-.983,2.986-.647.672-1.559,1.008-2.495,1.008-1.02,0-1.955-.647-2.531-1.487-.503-.768-.636-1.727-.636-2.626,0-1.667.516-3.143,1.763-4.282.42-.384.923-.707,1.499-.707.348,0,.684.132.996.264.132-.108.276-.216.456-.216ZM91.605,3.928c-.3,0-.563.288-.72.528-.384.611-.527,1.355-.527,2.075,0,.815.324,1.786.995,1.786.336,0,.612-.287.792-.539.348-.504.432-1.164.432-1.764,0-.611-.108-2.087-.972-2.087Z" fill="#fff"/>
      <path d="M100.605,1.722c.348,0,.708.275.935.516.264.288.492.672.492,1.056,0,.203-.072.384-.156.551.384.996.66,1.812.66,2.938,0,1.032-.24,2.207-.983,2.986-.647.672-1.559,1.008-2.495,1.008-1.02,0-1.955-.647-2.531-1.487-.503-.768-.636-1.727-.636-2.626,0-1.667.516-3.143,1.763-4.282.42-.384.923-.707,1.499-.707.348,0,.684.132.996.264.132-.108.276-.216.456-.216ZM99.381,3.928c-.3,0-.563.288-.72.528-.384.611-.527,1.355-.527,2.075,0,.815.324,1.786.995,1.786.336,0,.612-.287.792-.539.348-.504.432-1.164.432-1.764,0-.611-.108-2.087-.972-2.087Z" fill="#fff"/>
    </g>
  </g>
</svg>